<svg height="512pt" viewBox="0 0 512 512" width="512pt" xmlns="http://www.w3.org/2000/svg"><path d="m512 256c0 141.386719-114.613281 256-256 256s-256-114.613281-256-256 114.613281-256 256-256 256 114.613281 256 256zm0 0" fill="#ff5c37"/><path d="m388.609375 122.695312-17-17.695312h-80.21875c-15.128906 0-28.117187 9.621094-33.152344 23.046875-.046875-.046875-11.804687-11.8125-12.144531-12.140625-6.453125-6.707031-15.5-10.90625-25.484375-10.90625h-80.21875v17.695312h-35.390625v266.609376l120.929688 120.925781c9.863281 1.15625 19.894531 1.769531 30.070312 1.769531 141.386719 0 256-114.613281 256-256 0-10.175781-.613281-20.207031-1.765625-30.070312l-103.234375-103.234376zm0 0" fill="#ff3a33"/><path d="m273.695312 122.695312-17.695312 29.492188h-106.761719l106.761719 254.8125h21.359375l17.695313-17.695312h111.945312v-266.609376zm0 0" fill="#554fb2"/><path d="m105 122.695312v266.609376h111.945312l17.695313 17.695312h21.359375v-254.8125l-17.695312-29.492188zm0 0" fill="#8e4888"/><path d="m291.390625 105c-19.464844 0-35.390625 15.925781-35.390625 35.390625l-58.984375 89.066406 58.984375 89.066407 115.609375-35.390626v-178.132812zm0 0" fill="#ffe9d1"/><path d="m220.609375 105h-4.71875l-17.695313 17.695312-17.695312-17.695312h-40.109375v213.523438l115.609375 35.390624v-213.523437c0-19.464844-15.925781-35.390625-35.390625-35.390625zm0 0" fill="#fff"/><path d="m180.5 105h35.390625v133.894531h-35.390625zm0 0" fill="#ff3a33"/><path d="m256 318.523438-35.390625 17.695312 35.390625 17.695312 115.609375-35.390624v-35.390626h-80.21875c-19.464844 0-35.390625 15.925782-35.390625 35.390626zm0 0" fill="#ffd2a3"/><path d="m220.609375 283.132812h-80.21875v35.390626l115.609375 35.390624v-35.390624c0-19.464844-15.925781-35.390626-35.390625-35.390626zm0 0" fill="#ffe9d1"/><path d="m256 353.914062h115.609375v-35.390624h-80.21875c-19.464844 0-35.390625 15.925781-35.390625 35.390624zm0 0" fill="#ffe9d1"/><path d="m220.609375 318.523438h-80.21875v35.390624h115.609375c0-19.464843-15.925781-35.390624-35.390625-35.390624zm0 0" fill="#fff"/></svg>